<?xml version="1.0" encoding="UTF-8" standalone="no"?>
<svg
   xmlns:dc="http://purl.org/dc/elements/1.1/"
   xmlns:cc="http://creativecommons.org/ns#"
   xmlns:rdf="http://www.w3.org/1999/02/22-rdf-syntax-ns#"
   xmlns:svg="http://www.w3.org/2000/svg"
   xmlns="http://www.w3.org/2000/svg"
   xmlns:sodipodi="http://sodipodi.sourceforge.net/DTD/sodipodi-0.dtd"
   xmlns:inkscape="http://www.inkscape.org/namespaces/inkscape"
   viewBox="0 0 48 48"
   version="1.1"
   id="svg41"
   sodipodi:docname="pick.svg"
   inkscape:version="0.92.0 r15299">
  <metadata
     id="metadata45">
    <rdf:RDF>
      <cc:Work
         rdf:about="">
        <dc:format>image/svg+xml</dc:format>
        <dc:type
           rdf:resource="http://purl.org/dc/dcmitype/StillImage" />
      </cc:Work>
    </rdf:RDF>
  </metadata>
  <sodipodi:namedview
     pagecolor="#ffffff"
     bordercolor="#666666"
     borderopacity="1"
     objecttolerance="10"
     gridtolerance="10"
     guidetolerance="10"
     inkscape:pageopacity="0"
     inkscape:pageshadow="2"
     inkscape:window-width="1360"
     inkscape:window-height="743"
     id="namedview43"
     showgrid="false"
     inkscape:zoom="6.9532166"
     inkscape:cx="16.27895"
     inkscape:cy="25.778474"
     inkscape:window-x="0"
     inkscape:window-y="0"
     inkscape:window-maximized="1"
     inkscape:current-layer="svg41" />
  <defs
     id="defs7">
    <clipPath
       id="clipPath-121880098">
      <g
         transform="translate(0,-1004.3622)"
         id="g4">
        <path
           d="m -24 13 c 0 1.105 -0.672 2 -1.5 2 -0.828 0 -1.5 -0.895 -1.5 -2 0 -1.105 0.672 -2 1.5 -2 0.828 0 1.5 0.895 1.5 2 z"
           transform="matrix(15.333333,0,0,11.5,414.99999,878.8622)"
           style="fill:#1890d0"
           id="path2" />
      </g>
    </clipPath>
    <linearGradient
       gradientUnits="userSpaceOnUse"
       gradientTransform="scale(1.0827806,0.92354812)"
       x1="18.890306"
       y1="31.450382"
       x2="18.890306"
       y2="62.851021"
       id="linearGradient-1">
      <stop
         stop-color="#FBCA48"
         offset="0%"
         id="stop6" />
      <stop
         stop-color="#C38F0C"
         offset="100%"
         id="stop8" />
    </linearGradient>
  </defs>
  <path
     d="M 24 1 C 11.297 1 1 11.297 1 24 L 24 24 L 24 1 z "
     style="fill:#fdf21e;fill-opacity:1;stroke:none;fill-rule:evenodd"
     id="path17" />
  <path
     d="M 24 1 L 24 24 L 47 24 C 47 11.297 36.703 1 24 1 z "
     style="fill:#fe4ab5;fill-opacity:1;stroke:none;fill-rule:evenodd"
     id="path19" />
  <path
     d="m 24 24 l 0 23 c 12.703 0 23 -10.297 23 -23 l -23 0 z"
     style="fill:#48a859;fill-opacity:1;stroke:none;fill-rule:evenodd"
     id="path21" />
  <path
     d="m 1 24 c 0 12.703 10.297 23 23 23 l 0 -23 l -23 0 z"
     style="fill:#38a4fe;fill-opacity:1;stroke:none;fill-rule:evenodd"
     id="path23" />
  <circle
     cx="24.015726"
     cy="23.784275"
     style="fill:#eaeaea;fill-opacity:1;stroke-width:1.2540791"
     id="circle31"
     r="18.811186" />
  <g
     id="g849">
    <g
       transform="matrix(0.46458486,0,0,0.46733369,12.902926,12.998965)"
       id="g13">
      <path
         d="m 11.96,41.243 c 0,2.272 -1.553,3.738 -3.468,3.738 -1.915,0 -3.468,-1.465 -3.468,-3.738 0,-2.336 3.468,-6.645 3.468,-6.645 0,0 3.468,4.239 3.468,6.645 z"
         id="path15"
         inkscape:connector-curvature="0"
         style="fill:#5c67d7" />
    </g>
    <polygon
       transform="matrix(0.46458486,0,0,0.46733369,12.902926,12.998965)"
       points="15.673,23.434 23.886,23.54 34.904,12.517 30.745,8.357 "
       id="polygon17"
       style="fill:#c3c6ca" />
    <g
       transform="matrix(0.46458486,0,0,0.46733369,12.902926,12.998965)"
       id="g19">
      <path
         d="m 13.491,33.655 c 0,0 -3.298,0.435 -4.86,1.19 -0.136,0.066 -0.276,-0.074 -0.211,-0.21 0.749,-1.559 1.191,-4.859 1.191,-4.859 0.075,-0.26 0.215,-0.496 0.406,-0.687 l 6.058,-6.058 8.346,-0.027 -10.243,10.245 c -0.192,0.191 -0.428,0.331 -0.687,0.406 z"
         id="path21-3"
         inkscape:connector-curvature="0"
         style="fill:#5c67d7" />
    </g>
    <g
       style="fill:#ff0000"
       transform="matrix(0.46458486,0,0,0.46733369,12.902926,12.998965)"
       id="g23">
      <path
         d="m 37.035,16.623 c 0,0 -1.666,-1.945 -2.03,-3.841 1.576,-0.199 3.485,-1.309 4.914,-2.738 C 42.596,7.367 42.87,4.057 40.998,2.185 39.126,0.313 35.816,0.587 33.139,3.264 31.649,4.754 30.596,6.595 30.446,8.224 28.526,7.835 26.957,6.546 26.957,6.546 26.331,6.198 25.55,6.307 25.043,6.814 L 24.01,7.849 c -0.418,0.418 -0.418,1.095 0,1.513 l 10.21,10.21 c 0.418,0.418 1.095,0.418 1.513,0 l 1.035,-1.035 c 0.506,-0.507 0.615,-1.288 0.267,-1.914 z"
         id="path25-3"
         inkscape:connector-curvature="0"
         style="fill:#ff0000" />
    </g>
  </g>
</svg>
